<svg xmlns="http://www.w3.org/2000/svg" width="167" height="156" fill="none" viewBox="0 0 167 156">
  <g clip-path="url(#a)">
    <path fill="#22D1EE" d="M12.832 66.537a15.535 15.535 0 0 1 15.165-12.165h18.608L31.07 124.28H19.366c-9.938 0-17.32-9.203-15.165-18.905l8.63-38.837Z"/>
    <path fill="#7BC7D3" d="M152.573 31.07H82.669l-2.363 11.023a15.535 15.535 0 0 1-15.19 12.28h-18.51L55.62 12.28A15.535 15.535 0 0 1 70.811 0h69.202c9.89 0 17.262 9.119 15.191 18.79l-2.631 12.28Z"/>
    <path fill="#1852BD" d="M120.251 143.068a15.536 15.536 0 0 1-15.191 12.281H43.626c-9.89 0-17.262-9.119-15.19-18.789l2.63-12.281h93.21l-4.025 18.789Z"/>
    <path fill="#1B6BFF" d="M150.016 66.023c10.107 0 17.522 9.498 15.071 19.303l-6.796 27.186a15.536 15.536 0 0 1-15.071 11.767h-18.941l6.797-27.186H54.372l4.025-18.79a15.535 15.535 0 0 1 15.19-12.28h76.429Z"/>
  </g>
  <defs>
    <clipPath id="a">
      <path fill="#fff" d="M0 0h167v155.349H0z"/>
    </clipPath>
  </defs>
</svg>
